<svg id="Layer_1" data-name="Layer 1" xmlns="http://www.w3.org/2000/svg" viewBox="0 0 1451.23 616"><defs><style>.cls-1{fill:#f80f00;}.cls-2{fill:#fff;}</style></defs><title>logo_adarga</title><path class="cls-1" d="M165.91,0s-10,153-119,308c-101.25,144-28.07,308,119,308V0Z" transform="translate(0)"/><path class="cls-1" d="M164,0s10,153,119,308c101.25,144,28.07,308-119,308V0Z" transform="translate(0)"/><path class="cls-2" d="M51.65,388S0,470.66,51.65,533.69s117.79,34.1,117.79,34.1S65.08,533.69,51.65,388Z" transform="translate(0)"/><path d="M525,368.84h-59.2l-11.48,38.69H405.59l64.94-199.06h24.75v0.14l0.14-.14h24.75l65.08,199.06H536.57Zm-48.54-35.55h37.87l-18.59-61.8h-0.82Z" transform="translate(0)"/><path d="M592.46,407.53V208.47h72.87q35.14,0,58.79,22.9t23.65,58.72v35.82q0,36-23.65,58.79t-58.79,22.83H592.46ZM638.67,244V372h26.66q15.72,0,25.91-12.85t10.19-33.22V289.81q0-20.1-10.19-32.95T665.33,244H638.67Z" transform="translate(0)"/><path d="M869.7,368.83H810.5L799,407.53H750.34l64.94-199.06H840v0.14l0.14-.14h24.75L930,407.53H881.32Zm-48.54-35.55H859l-18.59-61.8h-0.82Z" transform="translate(0)"/><path d="M983.42,331.25v76.29H937.21V208.46h69.32q34.59,0,54.82,16t20.23,43.75q0,15.45-8.13,26.52t-24,18q18.32,5.2,26.32,17.29t8,30.15v12.63a79.28,79.28,0,0,0,2.32,17.77q2.32,10,8.07,14.22v2.73h-47.71q-5.47-4.24-7.11-14.9a132.48,132.48,0,0,1-1.64-20.1v-12q0-14.22-7.52-21.74t-22-7.52Zm0-35.55h23.38q14,0,21.33-6.36t7.38-18.25q0-12.17-7.59-19.62t-21.4-7.45H983.41V295.7Z" transform="translate(0)"/><path d="M1266,380.06q-10.39,12.58-29.26,21.46t-48.54,8.89q-37.05,0-60.16-22.7t-23.11-58.93V287.22q0-36,22.49-58.79t57.9-22.83q38.14,0,57.63,17t18.8,46.55l-0.27.82h-43.34q0-14.63-7.79-21.74t-23.52-7.11a31.26,31.26,0,0,0-26,12.71q-9.84,12.71-9.84,33.09v41.84q0,20.78,9.78,33.43t27.41,12.65q12.71,0,20-2a32.1,32.1,0,0,0,11.55-5.47V331.78h-35.27V301.16H1266v78.89Z" transform="translate(0)"/><path d="M1390.92,368.84h-59.2l-11.48,38.69h-48.67l64.94-199.06h24.75v0.14l0.14-.14h24.75l65.08,199.06h-48.67Zm-48.54-35.55h37.87l-18.59-61.8h-0.82Z" transform="translate(0)"/></svg>