<?xml version="1.0" encoding="utf-8"?>
<!-- Generator: Adobe Illustrator 19.2.0, SVG Export Plug-In . SVG Version: 6.00 Build 0)  -->
<svg version="1.2" baseProfile="tiny" id="Layer_1" xmlns="http://www.w3.org/2000/svg" xmlns:xlink="http://www.w3.org/1999/xlink"
	 x="0px" y="0px" viewBox="0 0 1366 541.7" xml:space="preserve">
<title>escud</title>
<g id="Layer_2">
	<g id="Layer_1-2">
		<path fill="#060303" d="M373.6,164.8c-10.4-16.5-7.6-40.8,6.1-53.4l0.7-0.7l-0.1,0.1c0.7-0.1,1.4-0.2,1.6-1h-0.1
			c0.5,0,1.1,0.1,0.9-0.8h-0.1c0.5,0,1.1,0.2,1.5,0c10.5-5.3,21.9-6.7,33.5-7.2c12.2,1.9,22,8,30.7,16.4
			c12.8,12.2,23,26.1,28.4,43.2c0.3,0.9,0.8,1.7,0.4,2.7c-3.1-4.5-6-9.2-9.4-13.5c-7.2-9.3-14.9-18-25.1-24.2
			c-13.5-8.3-28.1-10.8-43.3-6c-15,4.8-23.1,15.9-25.7,31.2C373.2,155.9,373.1,160.3,373.6,164.8z"/>
		<path fill="#060303" d="M244.3,136.8c6.3-1,6.1-1,5.5-7.5c-3.1-31.2-6.2-62.5-9.3-93.7c0-0.5,0-1.1,0.1-1.6c3-0.7,4.1,0.3,4.4,3.5
			c1.6,17.8,3.4,35.5,5.2,53.3c1.8,18.4,3.6,36.9,5.4,55.3c0.1,0.8,0.2,1.6,0.2,2.4c0.3,4.5-2.2,6.5-6.7,5.6
			c-1.6-0.3-1.4-1.4-1.6-2.4C246.5,146.8,245.4,141.8,244.3,136.8z"/>
		<path fill="#060303" d="M744.5,150.2c2.8,1.4,5.5-0.1,8.2-0.2c1.6-0.1,0.9-1.7,0.8-2.6c-2.1-19.1-4.3-38.1-6.4-57.2
			c-0.7-6.7-1.3-13.3-2-20c2.6-0.8,3.8-0.1,4.1,2.9c3.2,30.3,6.6,60.6,9.9,90.9c0.1,1.2,1.5,3.2-1.1,3.4s-6,2.6-7.5-0.9
			C748,161.2,746,155.8,744.5,150.2z"/>
		<path fill="#060303" d="M482,176.4c6.1-1.1,6.2-1.1,5.5-7.4c-2.2-20.6-4.6-41.1-6.8-61.6c-0.2-2.1-0.3-4.3-0.5-6.4
			c2.9-0.8,3.9,0.3,4.2,3.3c3,28.5,6.1,57,9.4,85.5c0.2,2.1,0.2,3.5-2.4,3.3c-2-0.1-4.7,2.4-5.5-2
			C484.9,186.1,483.3,181.3,482,176.4z"/>
		<path fill="#060303" d="M799.1,54.8c5.5-0.6,10.9-1.1,16.3-2c2.4-0.4,3.1,0.5,3.2,2.6c0.4,4.9,0.8,9.9,1.2,14.8
			c-5.7,0.6-11.4,1.1-17.1,1.9c-2.2,0.3-2.9-0.3-3-2.3C799.7,64.8,797.8,59.8,799.1,54.8z"/>
		<path fill="#060303" d="M1103.6,31.6l1.5,13.3c-5.6,0.6-11.2,1.1-16.7,1.8c-2.3,0.3-3-0.5-3.2-2.7c-1.2-10.1-1.2-10.1,8.9-11.4
			C1097.2,32.2,1100.4,31.9,1103.6,31.6z"/>
		<path fill="#060303" d="M979.6,34.6c5.8,5.3,7.5,12.4,8.6,19.8c-4.6-5.9-10.7-8.3-18.1-7.2c-1.8,0.3-2.5-0.5-2.6-2.1
			c0-0.1,0-0.3-0.1-0.4c-0.4-10-2.9-8.2,7-9.3C976.2,35.2,977.9,34.9,979.6,34.6z"/>
		<path fill="#060303" d="M32,80.5c-7,0.8-14.1,1.5-21.1,2.3c-2.3,0.3-3.2-0.4-3.3-2.6c-0.4-4.9-0.8-9.8-1.2-14.8
			c7-0.8,14-1.6,21-2.5c2.4-0.3,3.3,0.2,3.4,2.8C31,70.7,31.6,75.6,32,80.5z"/>
		<path d="M417.6,101.8c-11.6,0.5-23,1.9-33.5,7.2c-0.4,0.2-1,0-1.5,0c4.6-4.7,10.6-6.4,16.8-7.4S411.6,100.2,417.6,101.8z"/>
		<path d="M381.9,109.7c-0.2,0.9-0.9,0.9-1.6,1C380.6,110.1,381,109.6,381.9,109.7z"/>
		<path d="M382.7,109c0.2,0.9-0.4,0.8-0.9,0.8C381.7,109.1,382.1,108.9,382.7,109z"/>
		<path d="M380.4,110.6l-0.7,0.7L380.4,110.6z"/>
		<path fill="#FDFDFD" d="M212.3,357.6c-1.9,0.1-3-0.2-3.4-2.7c-1.4-10.4-3.5-20.6-6.2-30.8c-0.5-1.8-1.2-3.5-1.8-5.2
			c-3.2-13.4-9.4-25.1-19.7-34.4c-6.4-6.1-15.2-9.2-24-8.5c-5.8,0.4-11.5,1.3-17.2,1.7c-2.9,0.2-3.4,1.4-3.1,4
			c2,19.1,3.8,38.2,5.7,57.3c4.8,49.2,9.6,98.4,14.4,147.6c0.3,3.6,1.7,3.8,4.4,3.1c18.7-1.7,37.3-4,55.4-9.5
			c8.5-2.6,15.5-7.5,21.9-13.7c17.3-16.6,24.1-37.4,26.9-60.4c2.6-22.1,4.1-44.4,4.7-66.6c0.1-3.2,1.3-4.2,4.3-4.6
			c8.1-1.1,8-1.2,8.6,7c0.2,3.2,0.6,6.4,1,9.6c0.7,7.2,1.4,14.4,2.1,21.7c3.9,39.7,7.7,79.4,11.7,119.1c0.3,3.2-0.4,4.1-3.5,4.4
			c-24,2.6-48.1,5.4-72.1,8.1c-34.9,4-69.7,7.9-104.6,11.8c-22.2,2.5-44.3,5-66.5,7.6c-3.7,0.9-4.7-0.7-4.8-4.3
			c-0.1-4.8-0.6-9.7-1.3-14.4c-0.4-2.7,0.1-3.9,3-4.1c7.2-0.6,14.4-1.7,21.6-2.4c2.6-0.2,3.3-0.9,3-3.6c-1.4-12-2.5-24-3.7-36.1
			c-2.7-28.5-5.5-57-8.3-85.4c-2.6-26.2-5.2-52.4-7.8-78.6c-2.6-26.1-5.1-52.1-7.7-78.2c-2.6-26.2-5.1-52.4-7.7-78.6
			C36,119.3,34,99.9,32,80.5c-0.4-4.9-1-9.8-1.2-14.7c-0.1-2.6-1.1-3.1-3.4-2.8c-7,0.9-14,1.7-21,2.5c-3.4,0.6-4.7-0.8-4.7-4.2
			c-0.1-3.3,0-6.6-1.6-9.6v-8.9c7.4,0.4,14.6-1.2,21.9-2c25.5-2.7,51-5.7,76.5-8.6l81.7-9.2c18.4-2,36.8-4,55.2-6.2
			c2.9-0.4,3.6,0.5,3.8,3.3c0.2,4.7,1,9.3,1.6,14c-0.1,0.5-0.1,1.1-0.1,1.6c3.1,31.2,6.2,62.5,9.3,93.7c0.6,6.5,0.8,6.5-5.5,7.5
			c-2.5,0.2-2.5-1.7-2.9-3.4c-1.8-8.2-3.2-16.5-6.5-24.3c-1.8-8.4-5.2-16.4-10-23.5c-16.1-23.6-38.7-35.6-67.1-37.1
			c-13.4-0.7-26.5,1.3-39.7,3c-3.2,0.4-3.6,1.5-3.3,4.3c3.1,30.3,6.1,60.7,9,91c3.4,35,7,70,10.3,105.1c0.3,3.3,1.4,4.3,4.4,3.3
			c17.1-0.4,32.2-5.6,42-20.4c6.2-9.3,9.2-20.2,10.1-31.4c1-12.8-0.1-25.5-0.2-38.3c0-2.3,0.6-3,2.7-3.4c8.3-1.6,8.2-1.6,8.9,6.8
			c0.3,3.3,0.8,6.7,1.2,10c2.2,23,4.5,46,6.7,68.9c3.3,33.9,6.7,67.9,10,101.8c0.7,7.1,0.8,7.1-6,8.2
			C213.3,357.4,212.8,357.5,212.3,357.6z"/>
		<path fill="#FDFDFD" d="M1103.6,31.6c0.5-3.4-0.4-4.9-4.2-4.2c-5.4,0.9-11,1-16.4,1.8c-2.7,0.4-3.7-0.2-4.1-3
			c-1.4-10-1.4-9.8,8.6-10.8c27-2.8,53.9-5.7,80.8-8.6c18-1.9,36-3.9,54-5.8c0.8-0.1,2,0.4,2.4-0.9h27.4c2.9,1.5,6.2,1.3,9.2,1.9
			c23.8,5.2,41.6,19.4,56.8,37.4c16.9,20,24.9,44.3,32.5,68.7c-1,0.4-0.4,1-0.2,1.6c6.6,29.1,10.3,58.5,9.1,88.3
			c-1.1,26.9-6.8,52.7-19.4,76.7c-17.8,33.7-45,54.8-83,60.3c-26.3,3.8-52.9,6-79.3,8.9c-11.9,1.3-23.8,2.7-35.6,4
			c-8.6,0.2-17.1,1.6-25.6,2.5c-2.8,0.3-4.2,0-4.2-3.4s-2.1-7.4-0.3-9.8s6.2-1.2,9.5-1.7c3.7-0.6,7.5-1,11.2-1.2
			c2.6-0.1,3.4-0.9,3.1-3.6c-1.6-13.3-2.9-26.7-4.3-40c-2.6-23.9-5.1-47.8-7.7-71.7c-2.6-24.3-5.2-48.6-7.8-72.9
			c-2.5-23.6-5-47.3-7.6-70.9c-1.1-10.1-2.2-20.3-3.4-30.4L1103.6,31.6z M1219.2,19.2c-1.9-1.1-4-1.2-6.1-1.5
			c-10.7-1.7-21,1.7-31.6,2.3c-3,0.2-2.9,1.4-2,3.5c0,1.1,0,2.1,0.1,3.2c5,47.7,10,95.4,15,143.1c5.2,49.3,10.4,98.6,15.5,147.9
			c0.3,3.4,1.6,4.6,4.8,3.6c3.7,0.4,7.2-0.4,10.8-0.7c22-2.1,37.3-12.7,45.4-34c7-18.2,8.1-36.8,7.5-55.8
			c-0.7-22.1-3.1-44.2-5.5-66.2c-3-27.4-6.1-54.7-12.3-81.6c-1.6-7-2.7-14.2-6.4-20.6c0.1-0.7,0.1-1.3,0-2
			c-3.4-9.6-7.5-18.9-14.1-26.8C1234.8,26.7,1228.1,21.3,1219.2,19.2L1219.2,19.2z"/>
		<path fill="#060303" d="M1142.1,347.9c11.9-1.3,23.8-2.7,35.6-4c26.4-2.9,53-5.1,79.3-8.9c38-5.4,65.3-26.5,83-60.3
			c12.7-24,18.3-49.8,19.4-76.7c1.2-29.9-2.6-59.3-9.1-88.3c-0.1-0.6-0.7-1.2,0.2-1.6c1.2,0.7,1.3,2,1.6,3.1
			c5.6,18,8.9,36.5,11.3,55.1c0.9,6.7,0.8,13.6,2.3,20.2v34.7c-0.8,5.8-1.5,11.6-2.4,17.4c-4.8,30.2-15.5,57.8-36.3,80.7
			c-17.8,19.5-40.3,30.2-66.2,33.4c-30.7,3.8-61.4,6.6-92.1,9.9c-15.6,1.7-31.3,3.2-46.9,5c-2.6,0.3-3.1-0.3-3.4-2.7
			c-1.6-11.2-1.7-11.2,9.7-12.2c3.6-0.3,7.2-1,10.8-1.2C1141.8,351.4,1142.8,350.4,1142.1,347.9z"/>
		<path fill="#060303" d="M53.3,541.7l-1.7-17.4c22.2-2.5,44.3-5.1,66.5-7.6c34.8-3.9,69.7-7.9,104.5-11.8c24-2.7,48.1-5.5,72.1-8.1
			c3.1-0.3,3.8-1.2,3.5-4.4c-4-39.7-7.9-79.4-11.7-119.1c-0.7-7.2-1.4-14.4-2.1-21.7c3.1-1.1,4.2,0,4.5,3.2
			c1.9,20.5,3.9,40.9,5.9,61.4c2.3,23.4,4.6,46.8,7,70.2c0.8,8.1,1.5,16.3,2.5,24.5c0.3,2.4-0.7,3-2.8,3.3
			c-24.8,2.7-49.7,5.5-74.5,8.2c-25.1,2.8-50.2,5.7-75.3,8.5c-22.7,2.6-45.4,4.9-68.1,7.7c-7.6,0.9-15.4,0.9-22.9,3.1L53.3,541.7z"
			/>
		<path fill="#FDFDFD" d="M919.4,314.3c6.6,29.2,40.4,41,63.8,22c13-10.5,19.6-24.9,23.5-40.8c4.2-17,3.2-34.1,1.3-51.3
			c-2.5-23.4-4.7-46.8-7-70.2c-2.6-26.2-5.2-52.4-7.8-78.6c-1.3-13-2.1-26-4.3-38.8c-0.2-0.8-0.5-1.5-0.8-2.2
			c-1.1-7.4-2.8-14.5-8.6-19.8c-3.7-4.7-8.9-5.2-14.2-4.8c-3.1,0.3-3.8-0.7-3.9-3.6c-0.3-7.2-0.4-7.3,6.5-8.1
			c17.2-2,34.4-3.9,51.6-5.9c2-0.2,2.7,0.4,2.6,2.3c0,0.1,0,0.3,0,0.4c1,7.5,1,7.5-6,9.9c-3.8,1.4-7.5,3-9.7,6.7
			c-4.2,4.3-5.1,9.5-4.3,15.2c4.5,31,6.7,62.2,9.9,93.4c3.9,37.9,7.5,75.9,11.2,113.9c1.7,17.9,1.2,35.8-3.9,53.1
			c-8.7,29.7-26.4,51.6-56.8,60.8c-20.1,6.1-40.8,6.5-61.5,3.5c-13.5-1.9-25.4-7.4-35-17.5c-4-4.2-6.7-9.3-10.2-13.9
			c-6.4-14.1-10.8-29.1-13.1-44.5c-3.7-25.4-5.5-51-8.1-76.6c-2.9-28.3-5.6-56.7-8.4-85.1c-2-20.5-4-40.9-6.1-61.4
			c-0.1-0.8-0.3-1.6-0.4-2.4c-0.4-4.9-0.9-9.9-1.2-14.8c-0.2-2.1-0.8-3-3.2-2.6c-5.4,0.8-10.9,1.3-16.3,2c-5.1,0.1-5.1,0.1-5.5-5.3
			c-0.1-2.8-0.4-5.6-0.8-8.4c-0.5-2.5,0.5-3.2,2.8-3.5c12.6-1.3,25.1-2.9,37.7-4.3c25.4-2.8,50.8-5.6,76.1-8.5
			c2.2-0.2,3.1-0.1,3.2,2.4c0.1,3.5,0.4,7,1,10.4c0.4,2.3-0.5,2.7-2.5,2.9c-6.5,0.7-13.1,1.6-19.6,2.4c-1.4,0.2-3.3-0.2-2.5,2.3
			c-0.1,0.3-0.1,0.5-0.1,0.8c3.8,39.1,7.7,78.3,11.5,117.4c3.9,39.8,7.9,79.6,11.9,119.4C913.3,293.5,915.1,304.2,919.4,314.3z"/>
		<path fill="#FDFDFD" d="M357.3,440.2c-3.1,0.6-4.3-0.2-4.7-3.9c-2.6-28.8-5.6-57.5-8.5-86.2c-0.4-4.4-0.6-8.9-1.2-13.2
			c-0.3-2.2,0.2-3.4,2.5-3.3s4.9-1.6,5.8,2.6c2.2,10.7,5.7,21.2,10.4,31.1c10.8,22.5,26.9,40,49.4,51.1c12.8,6.3,26.1,6.5,39.6,2.1
			c15.9-5.1,23.2-17.8,28-32.4c3.1-8.8,3.1-18.4,0-27.3c0-0.8,0.3-1.7-0.8-2l0,0.1c-3.3-14.1-9.1-26.2-23.5-32.4
			c-18.7-8.1-37.3-16.4-55-26.5c-15-8.7-29.6-17.9-41.5-30.8c-5-5.5-8.3-12.1-12.3-18.2c-5.4-13.7-9.9-27.7-12.4-42.3
			c-4.7-27.1-1.2-52.9,11-77.6c5.5-11.3,11.7-22.1,21.3-30.5c20.7-18.2,52.7-21.2,76.3-6.9c7.2,4.4,14.1,9.2,21.6,14.1
			c1.7-6.8,3.2-13.4,4.9-20c0.3-1.3,0-3.2,1.9-3.6c2.4-0.5,4.8-0.7,7.2-0.7c1,0,0.7,1.6,0.8,2.4c0.7,5,1.4,10.1,2.1,15.1
			c0.1,2.1,0.2,4.3,0.5,6.4c2.3,20.5,4.6,41.1,6.8,61.6c0.7,6.3,0.6,6.3-5.5,7.4c-1.6-0.1-1.5-1.4-1.8-2.6c-1-3.2-1.1-6.8-3-9.7
			c0.4-1-0.1-1.8-0.4-2.7c-5.4-17.1-15.6-31-28.4-43.2c-8.7-8.3-18.6-14.5-30.7-16.4c-6.1-1.6-12.2-1.2-18.2-0.2s-12.1,2.8-16.8,7.4
			h0.1c-0.6,0-1,0.1-0.9,0.8h0.1c-0.9-0.2-1.3,0.3-1.6,1l0.1-0.1l-0.7,0.7c-13.7,12.6-16.5,36.9-6.1,53.4c2.1,4.8,5.8,8.8,10.5,11.3
			c13.1,7.6,27.1,12.9,41.3,17.8c15.3,5.2,30.3,10.7,44.6,18.3c20.2,10.7,33.6,26.4,38,49.2c0.3,1.3,0.5,2.6,0.8,4
			c0.5,2.2,1,4.4,1.4,6.6c3,17.5,4,35.2,5.5,52.9c1.5,17.5,0.9,35-4.6,51.9c-7.2,22.2-18.7,41.4-40.3,52.6c-0.7,0.2-1.6,0-1.8,1.1
			l0,0c-0.7,0-1.3,0.1-1.9,0.2c-12.7,4.5-25.8,5.5-39.1,4.1c-7.1-0.7-13.8-2.9-20.7-4.3c-10.6-4.5-21.2-8.9-31.6-14.4
			c-1.5,4.3-3.4,8.2-4.1,12.4C370.3,436.6,365.9,440.8,357.3,440.2z"/>
		<path fill="#FDFDFD" d="M744.5,150.2c0.1-1.7-1.2-2.8-1.8-4.1c0.5-1.3-0.3-2.4-0.7-3.4c-4.4-11.7-9.4-23.1-15-34.3
			c-5.4-10.6-12.4-19.7-22.1-26.7c-17.4-12.6-40.7-12.1-55.4,1.4c-8.4,7.7-12.8,17.8-15.6,28.6c-5.7,21.9-7.1,44.2-7.6,66.7
			c-0.5,25.4,1.3,50.7,4.2,76c3.5,30,8.9,59.8,16.2,89.1c0.5,2.1,0.8,4.5,2.3,6.3c5.6,18.4,17,31.4,34.9,39
			c6.4,2.7,12.5,2.3,18.9,0.9c22.2-4.6,36.4-18.6,45.7-38.4c8.2-17.5,11.5-36.3,13.7-55.2c0.4-3.3,0.8-6.7,1-10
			c0.2-2.8,1.3-3.4,4.1-3.1c9.5,1.1,9.5,1,9.4,10.8c0,2.3-0.7,4.5,0,6.8c-0.2,1.5-0.5,2.9-0.6,4.4c-1.9,24.8-9.4,47.6-24.1,67.8
			c-0.6,0.5-1.4,0.9-1,2v-0.1c-0.3,0.1-0.8,0.2-1,0.5c-11.9,14.4-26,25.6-43.7,32c-6.2,1.7-12.6,2.9-19,3.5
			c-27.6,2.4-52.4-4.2-73.6-22.6c-15.4-13.3-26.2-30-35.7-47.8c-1.8-3.4-3-7.1-5.5-10.2c-5.3-14.4-10.8-28.7-14-43.7
			c-9.7-45.1-11.1-90,1.9-134.8c7.3-25,18.6-47.8,37.4-66.2c14.6-14.3,31.4-24.8,51.8-28.4c27.3-4.9,52.7-0.9,74.7,17.4
			c0.4,0.3,0.9,0.7,1.3,0.9c0.3,0.1,0.6,0.2,0.9,0.3c2.7-6.3,4.9-12.8,6.5-19.5c0.5-2,8-4.6,9.4-3.1c0.5,0.6,0.5,1.7,0.7,2.6
			c0.8,4.9,0.7,9.9,2,14.7c0.7,6.7,1.3,13.3,2,20c2.1,19.1,4.3,38.1,6.4,57.2c0.1,0.9,0.9,2.5-0.8,2.6
			C750,150.1,747.2,151.6,744.5,150.2z"/>
		<path fill="#060303" d="M855.9,340.1c3.5,4.6,6.3,9.6,10.2,13.9c9.5,10.2,21.4,15.6,35,17.5c20.7,2.9,41.4,2.6,61.5-3.5
			c30.4-9.2,48.1-31.1,56.8-60.8c5.1-17.4,5.6-35.2,3.9-53.1c-3.6-38-7.3-76-11.2-113.9c-3.2-31.1-5.4-62.4-9.9-93.4
			c-0.8-5.7,0-11,4.3-15.2c6.3-0.6,12.6-1.1,18.8-1.9c2-0.2,2.7,0.4,2.8,2.2c0,0.4,0.1,0.8,0.1,1.2c0.7,6.9,0.7,6.9-5.7,8.9
			c-10.2,3.2-15.5,10.9-14.4,21.7c1.4,13.5,3.3,26.9,4.5,40.4c1.6,17.9,3.5,35.8,5.3,53.8c2.3,23.1,4.7,46.2,6.8,69.4
			c1.9,20.9,5.3,41.6,5.1,62.6c-0.2,23.4-5.2,45.6-19.2,65c-15,20.8-35.8,31.5-61,34.1c-14.9,1.5-29.7,2.1-44.6-0.5
			c-20.3-3.7-34.8-14.8-43.8-33.2c-2.1-4.2-3.7-8.6-5.6-12.9C855.3,341.7,855.4,340.7,855.9,340.1z"/>
		<path fill="#060303" d="M751.8,372.6c14.7-20.2,22.2-43,24.1-67.8c0.1-1.5,0.4-2.9,0.6-4.4c5.6,0.4,5.6,0.4,5.7,6
			c0.3,28.5-5.3,55.4-21.7,79.1c-13.2,19.2-30.1,34.5-53.4,39.7c-40.5,9-75-2.1-101.7-34.5c-14.4-17.5-24.9-37.2-32.6-58.5
			c-0.2-0.8-0.3-1.5-0.4-2.3c2.5,3,3.7,6.8,5.5,10.2c9.4,17.8,20.3,34.5,35.7,47.8c21.2,18.4,46,25,73.6,22.6
			c6.4-0.6,12.8-1.8,19-3.5c2,0.1,4-0.2,6-0.9c17.5-4.8,30.4-15.3,38.7-31.5v0.1C751.6,374.2,751.7,373.4,751.8,372.6z"/>
		<path fill="#060303" d="M357.3,440.2c8.6,0.5,13-3.6,14.3-12c0.6-4.2,2.6-8.1,4.1-12.4c10.4,5.5,21,9.9,31.6,14.4
			c16.9,11.6,34.8,13.8,53.8,5.6c3-1.3,6.2-2.4,8-5.6l0,0c1,0.2,1.4-0.4,1.8-1.1c21.6-11.2,33.1-30.4,40.3-52.6
			c5.5-16.9,6.1-34.4,4.6-51.9c-1.5-17.7-2.5-35.4-5.5-52.9c-0.4-2.2-0.9-4.4-1.4-6.6c2.2,0.1,1.8,2.1,2.2,3.3
			c4,11.6,5.9,23.7,7.1,35.9c1.6,15.8,3.5,31.5,4,47.4c0.8,28.4-5.3,54.6-23.7,77.2c-11.8,14.5-27.1,21.3-45.3,23.1
			c-22.9,2.2-43.4-5.1-63.4-15c-2.6-1.3-5.5-4.2-7.8-3.2c-1.8,0.8-2.1,4.9-3.1,7.5c-1.3,3.2-2.4,6.6-3.2,9.9c-0.8,3.9-3,5.2-6.6,5.3
			c-3.1,0.1-6.8,1.7-9,0.5c-2.6-1.4-1.1-5.6-1.6-8.6C357.6,445.9,357.6,443.1,357.3,440.2z"/>
		<path fill="#060303" d="M649,349.6c-1.5-1.8-1.8-4.1-2.3-6.3c-7.3-29.3-12.8-59.1-16.2-89.1c-2.9-25.2-4.7-50.5-4.2-76
			c0.5-22.5,1.9-44.8,7.6-66.7c2.8-10.8,7.2-20.9,15.6-28.6c14.8-13.6,38.1-14,55.4-1.4c9.7,7,16.7,16.1,22.1,26.7
			c5.6,11.1,10.6,22.6,15,34.3c0.4,1.1,1.2,2.1,0.7,3.4c-4.3-8.5-7.9-17.3-12.6-25.6c-5.6-10-13.7-18.4-23.6-24.3
			c-22.8-13.6-50.1-5.3-61.6,18.7c-5.5,11.4-7.8,23.7-9.5,36.1c-5.5,41.4-3.7,82.8,1.3,124.2c2.5,20.7,6.3,41.1,10,61.6
			C647.5,341,649.9,345,649,349.6z"/>
		<path fill="#060303" d="M138.4,255.1c-3.1,1.1-4.1,0-4.4-3.3c-3.3-35-6.8-70.1-10.3-105.1c-3-30.3-6-60.7-9-91
			c-0.3-2.8,0.2-3.9,3.3-4.3c13.2-1.7,26.4-3.7,39.7-3c28.4,1.5,51.1,13.5,67.1,37.1c4.8,7.1,8.2,15.1,10,23.5
			c-3.3-4-5.3-8.9-8.8-12.9c-15.3-17.7-34.3-28-57.7-30.1C153,64.6,138,66.9,123,68.8c-2.2,0.3-2.9,1.2-2.7,3.4
			c2.6,25.5,5.2,51,7.7,76.6c2,20.2,4,40.4,5.9,60.6C135.4,224.6,136.9,239.8,138.4,255.1z"/>
		<path fill="#060303" d="M161.5,489.9c-2.7,0.8-4.1,0.5-4.4-3.1c-4.7-49.2-9.5-98.4-14.4-147.6c-1.9-19.1-3.7-38.2-5.7-57.3
			c-0.3-2.7,0.1-3.8,3.1-4c5.8-0.4,11.5-1.3,17.2-1.7c8.8-0.7,17.6,2.4,24,8.5c10.3,9.3,16.5,21,19.7,34.4c-1.8-1.2-2.3-3.2-3.4-4.9
			c-10.2-16.2-24.3-23.7-43.6-20.1c-2.8,0.6-5.6,1-8.4,1.2c-2.5,0.1-3.1,1.1-2.8,3.5c1.3,12.5,2.4,25.1,3.7,37.7
			c2,20.6,4.1,41.1,6.1,61.7c2.3,23.5,4.7,47,7,70.5C160.2,475.7,160.9,482.8,161.5,489.9z"/>
		<path fill="#060303" d="M345.6,251c4,6.1,7.3,12.7,12.3,18.2c11.9,12.9,26.5,22.1,41.5,30.8c17.7,10.2,36.3,18.5,55,26.5
			c14.4,6.2,20.2,18.3,23.5,32.4c-6.7-11.5-18.6-15.6-29.8-20.5c-22.5-9.9-44.4-20.9-64.7-34.8c-18.2-12.4-30.9-28.7-37.4-49.9
			C345.9,252.8,345.7,251.9,345.6,251z"/>
		<path fill="#060303" d="M919.4,314.3c-4.4-10.1-6.1-20.8-7.2-31.5c-4-39.8-8-79.6-11.9-119.4c-3.9-39.1-7.7-78.3-11.5-117.4
			c0-0.3,0-0.5,0.1-0.8c8.8-1,17.6-2,26.4-3.1c2.3-0.3,3.1,0.5,3.2,2.8c0.1,3.1,0.4,6.2,0.9,9.2c0.5,2.9-0.7,3.7-3.4,4
			c-6.2,0.6-12.3,1.4-18.4,2c-2.3,0.2-3.4,1-3.2,3.7c3.7,36.9,7.4,73.8,11,110.7c3.1,31.7,6,63.4,9.2,95.1
			c1.4,13.8,2.2,27.6,4.6,41.2C919.6,311.9,919.5,313.1,919.4,314.3z"/>
		<path fill="#060303" d="M212.3,357.6c0.5-0.1,1-0.3,1.6-0.4c6.8-1.1,6.7-1,6-8.2c-3.4-33.9-6.7-67.9-10-101.8
			c-2.2-23-4.5-46-6.7-68.9c3.1-1.4,4.1-0.4,4.4,2.9c3,32.1,6.3,64.2,9.4,96.3c2.8,28.9,5.6,57.8,8.4,86.7c0.1,0.8,0.2,1.6,0.2,2.4
			c0.7,8.2,2.2,6.8-6.4,8c-3.3,0.5-4.4-0.5-4.7-3.9C214.1,366.4,213.1,362,212.3,357.6z"/>
		<path fill="#060303" d="M478,358.8c1.1,0.4,0.7,1.3,0.8,2C478.1,360.3,477.8,359.5,478,358.8z"/>
		<path fill="#060303" d="M1254.5,62.4c-2.2-3.4-4.2-6.8-6.6-10c-10.5-14.2-24.9-19.3-42.1-17.3c-5.9,0.7-11.7,1.9-17.6,2.2
			c-2.1,0.1-3,0.7-2.8,3.2c4.6,43.4,9.1,86.8,13.6,130.2c4.4,42.5,8.9,84.9,13.4,127.4c0.8,7.7,1.6,15.5,2.5,23.2
			c-3.2,1-4.4-0.2-4.8-3.6c-5.1-49.3-10.3-98.6-15.5-147.9c-5-47.7-10-95.4-15-143.1c-0.1-1.1-0.1-2.1-0.1-3.2l39.7-4.2
			c8.9,2,15.6,7.5,21.2,14.3c6.6,7.9,10.7,17.2,14.1,26.8C1254.5,61,1254.6,61.7,1254.5,62.4z"/>
		<path d="M469,430.2c-1.8,3.2-5,4.3-8,5.6c-18.9,8.2-36.9,6-53.8-5.6c6.9,1.5,13.6,3.6,20.7,4.3c13.4,1.4,26.4,0.4,39.1-4.1
			C467.7,430.3,468.3,430.3,469,430.2z"/>
		<path d="M470.8,429.2c-0.4,0.7-0.8,1.3-1.8,1.1C469.2,429.2,470.1,429.5,470.8,429.2z"/>
		<path d="M750.8,374.5c-8.2,16.3-21.1,26.8-38.7,31.5c-1.9,0.7-3.9,1-6,0.9c17.7-6.4,31.8-17.6,43.7-32
			C750,374.7,750.4,374.6,750.8,374.5z"/>
		<path d="M751.8,372.6c0,0.8-0.1,1.6-1,2C750.4,373.5,751.2,373.2,751.8,372.6z"/>
	</g>
</g>
</svg>
